<svg xmlns="http://www.w3.org/2000/svg" width="88.001" height="17.997" viewBox="0 0 88.001 17.997"><path d="M3882 3224v-17.98h17.283V3224zm3.582-3.67h5.366a5.342 5.342 0 0 0 0-10.683h-5.366v1.615h1.386v7.455h-1.386zm15.289 3.652V3206H3970v17.978zm43.273-12.543h1.065v5.159a3.663 3.663 0 1 0 7.326 0v-5.159h1.067v-1.617h-3.724v1.617h1.065v5.162a2.071 2.071 0 1 1-4.141 0v-5.162h1.064v-1.617h-3.722zm-12.748 8.876a3.3 3.3 0 0 0 3.4-3.191v-.015a2.916 2.916 0 0 0-.059-.578 2.481 2.481 0 0 0-.958-1.506 5.23 5.23 0 0 0-1.852-.8c-.124-.031-.246-.063-.368-.091-.228-.058-.459-.116-.69-.181s-.49-.137-.728-.22a1.037 1.037 0 0 1-.77-.936 1.471 1.471 0 0 1 1.7-1.5c1.543.058 1.8 1.781 1.8 1.781h1.591v-3.314h-1.591v.467l-.009-.005a3.455 3.455 0 0 0-1.89-.551 3.053 3.053 0 0 0-3.207 2.869v.238a2.218 2.218 0 0 0 .015.282 2.575 2.575 0 0 0 1.16 1.851 2.659 2.659 0 0 0 .515.262 9.914 9.914 0 0 0 1.181.358 66.782 66.782 0 0 1 .922.244 4.443 4.443 0 0 1 1.055.4 1.012 1.012 0 0 1 .583.954 1.237 1.237 0 0 1-.017.2 1.86 1.86 0 0 1-1.936 1.367 2.033 2.033 0 0 1-1.952-1.879h-1.591v3.345h1.592v-.534a3.506 3.506 0 0 0 2.102.678zm-14.127-8.876h1.068v5.159a3.663 3.663 0 1 0 7.326 0v-5.159h1.065v-1.617H3923v1.617h1.066v5.162a2.07 2.07 0 1 1-4.14 0v-5.162h1.062v-1.617h-3.723zm45.535 8.719h3.726v-1.619h-1.065v-7.1h1.065v-1.617h-3.5l-2.481 5.059-2.48-5.059h-3.5v1.617h1.067v7.1h-1.067v1.619h3.726v-1.619h-1.067v-6.776l3.319 6.776 3.322-6.776v6.776h-1.069zm-26.789 0h7.155v-2.7h-1.591v1.079h-2.91v-2.74h2.919v-1.615h-2.919v-2.745h2.91v1.077h1.591v-2.694h-7.155v1.617h1.062v7.1h-1.062zm-23.442 0h3.725v-1.619h-1.067v-7.1h1.067v-1.617h-3.5l-2.48 5.059-2.479-5.059h-3.5v1.617h1.065v7.1h-1.065v1.619h3.724v-1.619H3907v-6.776l3.32 6.776 3.321-6.776v6.776h-1.067zm-24.015-1.444v-7.449h2.4a3.725 3.725 0 0 1 0 7.449z" transform="translate(-3881.999 -3205.999)" style="fill:#fff"/></svg>