<svg xmlns="http://www.w3.org/2000/svg" width="198.497" height="40" viewBox="0 0 198.497 40">
              <path data-name="path 164" d="M0 40h38.983V.038H0zm8.076-11.744h3.126V11.69H8.076V8.1h12.1a11.87 11.87 0 0 1 0 23.74h-12.1z"></path>
              <path data-name="path 165" d="M28.463 19.97a8.271 8.271 0 0 0-8.26-8.277h-5.412v16.556h5.412a8.272 8.272 0 0 0 8.26-8.279z"></path>
              <path data-name="path 166" d="M42.565 0v39.954h155.931V0zm34.8 12.08h-2.406v15.78h2.406v3.6h-8.4v-3.6h2.407V12.8l-7.491 15.06-7.49-15.06v15.06h2.407v3.6h-8.4v-3.6h2.4V12.08h-2.4V8.486h7.893l5.59 11.244 5.594-11.244h7.893zm23.526 0h-2.4v11.467a8.263 8.263 0 0 1-16.526 0V12.08h-2.406V8.486h8.4v3.594h-2.4v11.474a4.67 4.67 0 1 0 9.34 0V12.08h-2.4V8.486h8.4zm18.192 12.635a7.4 7.4 0 0 1-7.663 7.094 8 8 0 0 1-4.745-1.524v1.187h-3.59v-7.436h3.59a4.556 4.556 0 0 0 4.4 4.178c2.237 0 4.083-1.329 4.366-3.041a2.717 2.717 0 0 0 .038-.448 2.249 2.249 0 0 0-1.315-2.123 10.15 10.15 0 0 0-2.38-.879s-.946-.26-1.63-.432a5.007 5.007 0 0 0-.439-.112 22.478 22.478 0 0 1-2.664-.8 5.912 5.912 0 0 1-1.162-.581 5.7 5.7 0 0 1-2.617-4.114 5.008 5.008 0 0 1-.034-.627h-.006v-.528c0-3.522 3.241-6.378 7.234-6.378a7.893 7.893 0 0 1 4.265 1.225.22.22 0 0 0 .021.014V8.354h3.588v7.365h-3.589s-.588-3.832-4.071-3.96c-3.961-.15-3.839 3.329-3.839 3.329a2.315 2.315 0 0 0 1.737 2.079c.538.185 1.089.345 1.642.49.521.146 1.041.275 1.555.4.278.062.555.133.832.2a11.876 11.876 0 0 1 4.177 1.788 5.493 5.493 0 0 1 2.16 3.345 6.479 6.479 0 0 1 .132 1.284zm18.9-10.242h-3.59V12.08h-6.564v6.1h6.584v3.591h-6.584v6.09h6.564v-2.4h3.59v6H121.84v-3.6h2.4v-15.78h-2.4V8.487h16.141zm23.532-2.393h-2.407v11.467a8.263 8.263 0 1 1-16.525 0V12.08h-2.4V8.486h8.4v3.594h-2.4v11.474a4.67 4.67 0 1 0 9.339 0V12.08h-2.4V8.486h8.4zm29.16 0h-2.4v15.78h2.4v3.6h-8.406v-3.6h2.413V12.8l-7.494 15.06-7.487-15.06v15.06h2.407v3.6h-8.4v-3.6h2.406V12.08h-2.406V8.486h7.889l5.595 11.244 5.6-11.244h7.89z"></path>
            </svg>